<svg viewBox="0 0 8 8" fill="none" xmlns="http://www.w3.org/2000/svg">
<g clip-path="url(#clip0_5838_23362)">
<path d="M7.86055 5.90794C7.86055 6.05082 7.81176 6.16931 7.71418 6.2634C7.62009 6.35749 7.51031 6.40454 7.38485 6.40454C7.25591 6.40454 7.14439 6.35575 7.0503 6.25817C6.95969 6.16059 6.91439 6.05082 6.91439 5.92885V3.9947L7.00848 1.55349L6.14595 2.53102L0.955126 7.71662C0.861033 7.81072 0.751257 7.85776 0.625799 7.85776C0.538675 7.85776 0.458521 7.83511 0.385337 7.78981C0.312153 7.7445 0.252909 7.68526 0.207605 7.61207C0.162301 7.53541 0.139648 7.45525 0.139648 7.37161C0.139648 7.24964 0.188438 7.13986 0.286016 7.04229L5.46639 1.85146L6.43869 0.999387L3.88771 1.08303H2.06857C1.94659 1.08303 1.83682 1.03772 1.73924 0.947113C1.64515 0.853019 1.5981 0.743243 1.5981 0.617785C1.5981 0.492327 1.6434 0.382551 1.73401 0.288458C1.82462 0.190879 1.94311 0.14209 2.08948 0.14209H7.34826C7.50508 0.14209 7.6288 0.189137 7.71941 0.28323C7.81002 0.377324 7.85532 0.499297 7.85532 0.64915L7.86055 5.90794Z" fill="white" style="fill:white;fill-opacity:1;"/>
</g>
<defs>
<clipPath id="clip0_5838_23362">
<rect width="8" height="8" fill="white" style="fill:white;fill-opacity:1;"/>
</clipPath>
</defs>
</svg>
